<svg xmlns="http://www.w3.org/2000/svg" width="130" height="36" fill="none">
  <path fill="#2557AB" fill-rule="evenodd" d="M54.22 21c.974 0 1.869.142 2.682.425.818.285 1.481.664 1.989 1.138l.19.178-1.824 1.978-.192-.213c-.273-.305-.663-.57-1.17-.79a4.115 4.115 0 0 0-1.66-.33c-.588 0-1.117.104-1.59.313-.474.209-.875.495-1.207.859a3.913 3.913 0 0 0-.775 1.29 4.618 4.618 0 0 0-.276 1.619c0 .607.093 1.16.276 1.661.184.5.444.93.782 1.296.336.364.745.647 1.23.85.484.204 1.037.307 1.661.307.797 0 1.495-.112 2.094-.335v-2.578h-2.489V26.4h5.05v6.58l-.148.072c-.62.3-1.299.532-2.036.699-.738.166-1.584.249-2.538.249-.989 0-1.895-.16-2.717-.479a6.255 6.255 0 0 1-2.125-1.347 6.123 6.123 0 0 1-1.388-2.066c-.33-.8-.496-1.68-.496-2.642 0-.984.171-1.878.514-2.677a5.994 5.994 0 0 1 1.415-2.042c.6-.56 1.306-.992 2.117-1.295a7.47 7.47 0 0 1 2.63-.452Zm39.265 0c.394 0 .805.038 1.231.113.43.076.842.192 1.237.35a5.99 5.99 0 0 1 1.118.587c.359.24.664.529.916.866l.153.204-2.015 1.601-.16-.218a2.435 2.435 0 0 0-1.105-.842 3.767 3.767 0 0 0-1.375-.276c-.577 0-1.098.105-1.565.313-.469.21-.871.496-1.209.861a3.838 3.838 0 0 0-.782 1.288 4.62 4.62 0 0 0-.276 1.62c0 .619.09 1.182.27 1.69.177.504.43.934.756 1.294a3.38 3.38 0 0 0 1.172.833c.456.198.972.297 1.55.297.595 0 1.117-.117 1.569-.348a3.04 3.04 0 0 0 1.094-.92l.151-.207 2.124 1.498-.173.218a5.671 5.671 0 0 1-2.013 1.607c-.794.381-1.718.571-2.768.571-.957 0-1.839-.16-2.644-.48a6.127 6.127 0 0 1-2.084-1.348 6.14 6.14 0 0 1-1.36-2.066c-.326-.798-.488-1.679-.488-2.64 0-.984.171-1.878.514-2.677a5.994 5.994 0 0 1 1.415-2.042c.6-.56 1.305-.992 2.117-1.295a7.47 7.47 0 0 1 2.63-.452ZM46.856 33.698l-5.32-12.396h-2.164L34 33.698h2.931l1.07-2.716h4.775l1.102 2.716h2.978Zm-6.463-8.884-1.471 3.833h2.916l-1.445-3.833Zm30.032-1.144v-2.368H62.07v12.396h8.657v-2.402h-6.03v-2.83h5.429v-2.301h-5.43V23.67h5.73Zm6.074-2.368 5.123 8.284v-8.284h2.627v12.396h-3.08l-5.24-8.562v8.562h-2.626V21.302h3.196Zm27.57 4.75-2.827-4.75h-3.207l4.669 7.065v5.331h2.627v-5.33L110 21.301h-3.073l-2.858 4.75Z" clip-rule="evenodd"/>
  <path fill="#2557AB" d="M15.296 28.576v-7.424H1.185v-7.169h14.111V0H24v36H0v-7.424h15.296Z"/>
  <path fill="#2557AB" fill-rule="evenodd" d="M60.662 8.643h1.811l-.976 7.071h1.598l.976-7.071h1.918l.195-1.393h-1.9l.266-1.946a7.1 7.1 0 0 1 .17-.795c.064-.232.156-.432.274-.598.119-.167.273-.295.462-.384.19-.09.432-.134.728-.134.166 0 .32.012.462.036.142.023.284.065.426.125l.373-1.429a2.945 2.945 0 0 0-.613-.107 9.207 9.207 0 0 0-.56-.018c-1.053 0-1.831.277-2.334.83-.503.554-.838 1.396-1.003 2.527l-.267 1.893h-1.81l-.196 1.393ZM48.374 2.214h-1.598l-1.882 13.5h1.598l1.882-13.5Zm-4.715.857h-7.901L34 15.714h1.705l.763-5.464h5.77l.213-1.607h-5.77l.55-3.964h6.197l.23-1.608Zm13.815 12.643h-1.598l.178-1.303h-.036c-.272.452-.675.818-1.207 1.098-.533.28-1.125.42-1.776.42-.414 0-.796-.063-1.145-.188a2.202 2.202 0 0 1-.888-.58c-.242-.262-.417-.598-.523-1.01-.107-.41-.125-.895-.054-1.455l.764-5.446h1.598l-.693 5c-.059.393-.056.73.01 1.009.064.28.174.506.328.678.154.173.343.298.568.376.225.077.462.116.71.116.663 0 1.249-.224 1.758-.67.509-.447.834-1.164.976-2.152l.604-4.357h1.598l-1.172 8.464Zm11.578-7.071h-1.81l.195-1.393h1.81l.267-1.893c.166-1.13.5-1.973 1.003-2.527C71.02 2.277 71.8 2 72.852 2c.178 0 .364.006.56.018.195.012.399.047.612.107l-.373 1.429a1.926 1.926 0 0 0-.426-.125 2.798 2.798 0 0 0-.462-.036c-.296 0-.538.045-.728.134-.19.09-.343.217-.461.384a1.92 1.92 0 0 0-.276.598 7.079 7.079 0 0 0-.168.795l-.267 1.946h1.9l-.195 1.393H70.65l-.976 7.071h-1.598l.976-7.071ZM76.36 7.25h-1.847l2.308 8.518-.692 1.34a5.004 5.004 0 0 1-.329.57 2.454 2.454 0 0 1-.373.438c-.136.125-.295.22-.479.286-.183.065-.4.098-.648.098a2.3 2.3 0 0 1-.941-.196l-.373 1.464c.201.095.42.158.657.187a5.7 5.7 0 0 0 .71.045c.438 0 .817-.06 1.137-.179.32-.119.6-.285.843-.5.243-.214.462-.473.657-.776.195-.304.388-.64.577-1.01L83 7.25h-1.722l-3.303 6.607h-.035L76.36 7.25Z" clip-rule="evenodd"/>
</svg>
